HIERARCHY
ROOT Hips
{
	OFFSET 0.00000 0.00000 0.00000
	CHANNELS 6 Xposition Yposition Zposition Zrotation Yrotation Xrotation 
	JOINT LHipJoint
	{
		OFFSET 0 0 0
		CHANNELS 3 Zrotation Yrotation Xrotation
		JOINT LeftHip
		{
			OFFSET 1.42489 -1.84941 0.69647
			CHANNELS 3 Zrotation Yrotation Xrotation
			JOINT LeftKnee
			{
				OFFSET 2.44443 -6.71602 0.00000
				CHANNELS 3 Zrotation Yrotation Xrotation
				JOINT LeftAnkle
				{
					OFFSET 2.62838 -7.22137 0.00000
					CHANNELS 3 Zrotation Yrotation Xrotation
					JOINT LeftToe
					{
						OFFSET 0.24036 -0.66037 2.29953
						CHANNELS 3 Zrotation Yrotation Xrotation
						End Site
						{
							OFFSET 0.00000 -0.00000 1.19837
						}
					}
				}
			}
		}
	}
	JOINT RHipJoint
	{
		OFFSET 0 0 0
		CHANNELS 3 Zrotation Yrotation Xrotation
		JOINT RightHip
		{
			OFFSET -1.37055 -1.84941 0.69647
			CHANNELS 3 Zrotation Yrotation Xrotation
			JOINT RightKnee
			{
				OFFSET -2.54834 -7.00152 0.00000
				CHANNELS 3 Zrotation Yrotation Xrotation
				JOINT RightAnkle
				{
					OFFSET -2.65692 -7.29983 0.00000
					CHANNELS 3 Zrotation Yrotation Xrotation
					JOINT RightToe
					{
						OFFSET -0.18839 -0.51760 2.29390
						CHANNELS 3 Zrotation Yrotation Xrotation
						End Site
						{
							OFFSET -0.00000 -0.00000 1.18261
						}
					}
				}
			}
		}
	}
	JOINT lowerback
	{
		OFFSET 0 0 0
		CHANNELS 3 Zrotation Yrotation Xrotation
		JOINT Chest
		{
			OFFSET 0.05220 2.15489 0.05011
			CHANNELS 3 Zrotation Yrotation Xrotation
			JOINT Chest2
			{
				OFFSET -0.07653 2.14219 -0.05668
				CHANNELS 3 Zrotation Yrotation Xrotation
				JOINT lowerneck
				{
					OFFSET 0 0 0
					CHANNELS 3 Zrotation Yrotation Xrotation
					JOINT Neck
					{
						OFFSET 0.01370 1.58638 0.01447
						CHANNELS 3 Zrotation Yrotation Xrotation
						JOINT Head
						{
							OFFSET 0.23548 1.54190 -0.21747
							CHANNELS 3 Zrotation Yrotation Xrotation
							End Site
							{
								OFFSET 0.07132 1.59823 -0.08163
							}
						}
					}
				}
				JOINT LeftCollar
				{
					OFFSET 0 0 0
					CHANNELS 3 Zrotation Yrotation Xrotation
					JOINT LeftShoulder
					{
						OFFSET 3.47056 1.45357 -0.58896
CHANNELS 3 Zrotation Xrotation Yrotation
						JOINT LeftElbow
						{
OFFSET 0 -5.190690 0.000000
CHANNELS 3 Zrotation Xrotation Yrotation
							JOINT LeftWrist
							{
OFFSET 0 -3.300160 0.000000
CHANNELS 3 Zrotation Xrotation Yrotation
								JOINT lhand
								{
									OFFSET 0 0 0
CHANNELS 3 Zrotation Xrotation Yrotation
									JOINT LFingers
									{
OFFSET 0 -0.707700 0.000000
CHANNELS 3 Zrotation Xrotation Yrotation
										End Site
										{
OFFSET 0 -0.570560 0.000000
										}
									}
								}
								JOINT LThumb
								{
OFFSET 0 0.000000 0.000000
CHANNELS 3 Zrotation Xrotation Yrotation
									End Site
									{
OFFSET 0 -0.579280 0.579280
									}
								}
							}
						}
					}
				}
				JOINT RightCollar
				{
					OFFSET 0 0 0
					CHANNELS 3 Zrotation Yrotation Xrotation
					JOINT RightShoulder
					{
						OFFSET -2.89018 2.03305 -0.26731
CHANNELS 3 Zrotation Xrotation Yrotation
						JOINT RightElbow
						{
OFFSET 0 -5.239240 0.000000
CHANNELS 3 Zrotation Xrotation Yrotation
							JOINT RightWrist
							{
OFFSET 0 -3.329530 0.000000
CHANNELS 3 Zrotation Xrotation Yrotation
								JOINT rhand
								{
									OFFSET 0 0 0
CHANNELS 3 Zrotation Xrotation Yrotation
									JOINT RFingers
									{
OFFSET 0 -0.607410 0.000000
CHANNELS 3 Zrotation Xrotation Yrotation
										End Site
										{
OFFSET 0 -0.489710 0.000000
										}
									}
								}
								JOINT RThumb
								{
OFFSET 0 0.000000 0.000000
CHANNELS 3 Zrotation Xrotation Yrotation
									End Site
									{
OFFSET 0 -0.497190 0.497190
									}
								}
							}
						}
					}
				}
			}
		}
	}
}
MOTION
Frames: 5
Frame Time: 0.008333333333333333
15.902700 17.395200 -8.211400 -9.214100 -31.460900 5.449100 0.000000 0.000000 0.000000 -13.534900 3.315400 -6.117800 2.250000 9.368500 26.955000 1.726700 -3.813700 -23.919600 0.080600 -1.831700 -5.040700 0.000000 0.000000 0.000000 29.220500 -1.016900 -7.254100 -2.375000 -9.607100 27.713500 -1.604700 1.799700 -23.448100 -0.021300 -0.941400 2.587600 7.259600 -0.595000 -8.708700 -0.018600 -1.661000 2.893800 -4.359100 -0.455000 7.782200 -10.889100 -8.787200 -5.504300 18.005800 -11.758500 0.188300 6.650400 -5.614400 2.749300 0.000000 0.000000 0.000000 14.913800 28.819200 -102.994600 48.090500 -52.195700 24.657200 2.509800 -2.498900 -6.579600 0.000000 0.000000 0.000000 -7.125000 0.000000 0.000000 -20.112000 35.893300 -4.743700 0.000000 0.000000 0.000000 -10.869100 36.837700 86.319000 -53.268700 -54.231700 -28.806000 -3.589800 16.841400 16.697500 0.000000 0.000000 0.000000 7.125000 0.000000 -0.000000 22.470800 45.427800 -0.250000
15.906694 17.394829 -8.196629 -9.037241 -31.418185 5.363363 0.000000 0.000000 0.000000 -13.744922 3.347912 -6.054439 2.235397 9.340168 26.865188 1.725803 -3.883571 -23.901196 0.079017 -1.813683 -4.991073 0.000000 0.000000 0.000000 28.984716 -1.141501 -7.282387 -2.381640 -9.619460 27.753119 -1.609783 1.974807 -23.442617 -0.022266 -0.962432 2.645514 7.097500 -0.578868 -8.800777 -0.036056 -1.620871 2.779763 -4.281342 -0.448070 7.719222 -10.847137 -8.769410 -5.381117 17.828723 -11.758380 0.375763 6.590766 -5.616656 2.767396 0.000000 0.000000 0.000000 14.795071 28.920708 -102.930225 47.771493 -52.056199 24.405412 2.784239 -2.400976 -6.778917 0.000000 0.000000 0.000000 -7.125000 0.000000 0.000000 -19.943129 36.097828 -4.594067 0.000000 0.000000 0.000000 -10.784735 37.006634 86.093583 -52.983254 -54.129984 -28.574566 -3.640423 16.917965 16.528517 0.000000 0.000000 0.000000 7.125000 0.000000 0.000000 22.358299 45.277622 -0.161437
15.913540 17.393694 -8.189586 -9.421741 -31.279161 5.615695 0.000000 0.000000 0.000000 -13.340645 3.406041 -6.229022 2.253490 9.375272 26.976411 1.723226 -4.164987 -23.836400 0.075580 -1.773070 -4.878913 0.000000 0.000000 0.000000 29.347206 -1.133987 -7.276787 -2.361147 -9.580959 27.630072 -1.604149 1.893684 -23.420699 -0.023354 -0.986796 2.712464 7.446188 -0.574574 -8.814702 0.051591 -1.657282 2.624253 -4.387662 -0.462571 7.550842 -10.719405 -8.768687 -5.397345 17.608575 -11.782989 0.630434 6.494780 -5.623249 2.823975 0.000000 0.000000 0.000000 14.736334 29.035281 -102.856624 47.509188 -51.940111 24.198692 3.367430 -2.318369 -6.985911 0.000000 0.000000 0.000000 -7.125000 0.000000 0.000000 -19.527647 36.329539 -4.371643 0.000000 0.000000 0.000000 -10.651698 37.082588 85.941356 -52.612611 -53.996328 -28.274391 -3.767681 16.843129 16.339968 0.000000 0.000000 0.000000 7.125000 0.000000 0.000000 22.171678 45.118381 -0.068210
15.920014 17.393809 -8.178944 -9.579040 -31.184689 5.782633 0.000000 0.000000 0.000000 -13.184325 3.462819 -6.398669 2.266863 9.401071 27.058145 1.722995 -4.406497 -23.797636 0.072497 -1.736854 -4.778883 0.000000 0.000000 0.000000 29.465303 -1.161104 -7.311937 -2.342361 -9.545430 27.516886 -1.597643 1.893659 -23.371742 -0.023700 -0.994526 2.733745 7.583246 -0.592181 -8.868043 0.116474 -1.697054 2.427859 -4.399780 -0.490386 7.363492 -10.684084 -8.731434 -5.360863 17.399225 -11.759745 0.923195 6.423253 -5.607773 2.882425 0.000000 0.000000 0.000000 14.586665 29.243419 -102.743229 47.268234 -51.832501 24.009163 3.912864 -2.256692 -7.201672 0.000000 0.000000 0.000000 -7.125000 0.000000 0.000000 -19.142554 36.568256 -4.159119 0.000000 0.000000 0.000000 -10.655195 37.231750 85.881636 -52.314415 -53.887307 -28.033371 -3.868382 16.730963 16.149129 0.000000 0.000000 0.000000 7.125000 0.000000 0.000000 22.008239 44.953445 0.026600
15.926994 17.396254 -8.166950 -9.547644 -31.091394 5.931773 0.000000 0.000000 0.000000 -13.227577 3.519046 -6.580773 2.256567 9.381246 26.995461 1.712007 -4.619292 -23.688363 0.069763 -1.703846 -4.687754 0.000000 0.000000 0.000000 29.391364 -1.175352 -7.488244 -2.341048 -9.543091 27.509289 -1.596897 1.942067 -23.353727 -0.023694 -0.992789 2.728996 7.587141 -0.624217 -9.009846 0.120772 -1.741882 2.198249 -4.404416 -0.525420 7.191513 -10.640539 -8.683901 -5.352004 17.196172 -11.726328 1.258086 6.351641 -5.585042 2.956566 0.000000 0.000000 0.000000 14.454690 29.510721 -102.603316 47.082377 -51.748820 23.863146 4.486728 -2.191233 -7.416671 0.000000 0.000000 0.000000 -7.125000 0.000000 0.000000 -18.731993 36.809123 -3.945389 0.000000 0.000000 0.000000 -10.663985 37.392753 85.869949 -52.073702 -53.798406 -27.839064 -3.968825 16.576326 15.967761 0.000000 0.000000 0.000000 7.125000 0.000000 0.000000 21.849779 44.796779 0.115276
